<svg width="61" height="76" viewBox="0 0 61 76" fill="none" xmlns="http://www.w3.org/2000/svg">
<path d="M21.3906 72V65.936H21.439L25.6821 72H26.6221V64.2495H25.666V70.335H25.6177L21.3745 64.2495H20.4346V72H21.3906ZM30.3174 66.978C31.2305 66.978 31.8535 67.6333 31.875 68.6162H28.6899C28.7544 67.6387 29.4097 66.978 30.3174 66.978ZM31.8535 70.3457C31.687 70.8882 31.123 71.2319 30.3979 71.2319C29.3667 71.2319 28.6899 70.5176 28.6899 69.4165V69.3628H32.8472V68.9976C32.8472 67.2466 31.8804 66.1562 30.3335 66.1562C28.7544 66.1562 27.7231 67.3325 27.7231 69.1265C27.7231 70.9204 28.749 72.0537 30.3765 72.0537C31.6118 72.0537 32.6162 71.3394 32.7773 70.3457H31.8535ZM41.1562 66.21H40.2324L39.0562 70.9419H39.0347L37.708 66.21H36.8057L35.479 70.9419H35.4575L34.2812 66.21H33.3574L34.9795 72H35.9248L37.2461 67.499H37.2676L38.5889 72H39.5342L41.1562 66.21Z" fill="black"/>
<circle cx="30.5" cy="30" r="29.5" stroke="#DCDCDC"/>
<mask id="mask0_278_1578" style="mask-type:alpha" maskUnits="userSpaceOnUse" x="4" y="4" width="53" height="52">
<circle cx="30.5" cy="30" r="26" fill="#C4C4C4"/>
</mask>
<g mask="url(#mask0_278_1578)">
<line x1="30.1666" y1="21" x2="30.1666" y2="39" stroke="black" stroke-width="2" stroke-linecap="round"/>
<line x1="21.5" y1="30.167" x2="39.5" y2="30.167" stroke="black" stroke-width="2" stroke-linecap="round"/>
</g>
</svg>
